{
  "accessors": [
    {
      "bufferView": 2,
      "componentType": 5126,
      "count": 6463,
      "max": [
        39.47129821777344,
        19.426000595092773,
        169.65480041503906
      ],
      "min": [
        -37.24250030517578,
        -37.07720184326172,
        -1.808500051498413
      ],
      "type": "VEC3"
    },
    {
      "bufferView": 2,
      "byteOffset": 77556,
      "componentType": 5126,
      "count": 6463,
      "max": [
        0.9999996423721313,
        0.9998461604118347,
        0.9998942613601685
      ],
      "min": [
        -0.9999988079071045,
        -0.9999769926071167,
        -0.999924898147583
      ],
      "type": "VEC3"
    },
    {
      "bufferView": 1,
      "componentType": 5126,
      "count": 6463,
      "max": [
        0.9975000023841858,
        0.9983999729156494
      ],
      "min": [
        0.0010000000474974513,
        0.0015999999595806003
      ],
      "type": "VEC2"
    },
    {
      "bufferView": 0,
      "componentType": 5125,
      "count": 24780,
      "type": "SCALAR"
    },
    {
      "bufferView": 2,
      "byteOffset": 155112,
      "componentType": 5126,
      "count": 46,
      "max": [
        11.672699928283691,
        -6.695799827575684,
        173.39529418945313
      ],
      "min": [
        -11.514300346374512,
        -20.277700424194336,
        152.62899780273438
      ],
      "type": "VEC3"
    },
    {
      "bufferView": 2,
      "byteOffset": 155664,
      "componentType": 5126,
      "count": 46,
      "max": [
        0.9857761859893799,
        -0.16789592802524567,
        0.6586199402809143
      ],
      "min": [
        -0.9857761859893799,
        -0.9543092250823975,
        -0.6777282357215881
      ],
      "type": "VEC3"
    },
    {
      "bufferView": 1,
      "byteOffset": 51704,
      "componentType": 5126,
      "count": 46,
      "max": [
        0.7408999800682068,
        0.7401000261306763
      ],
      "min": [
        0.595300018787384,
        0.6557999849319458
      ],
      "type": "VEC2"
    },
    {
      "bufferView": 0,
      "byteOffset": 99120,
      "componentType": 5125,
      "count": 180,
      "type": "SCALAR"
    },
    {
      "bufferView": 2,
      "byteOffset": 156216,
      "componentType": 5126,
      "count": 2439,
      "max": [
        19.228900909423828,
        39.23870086669922,
        171.16409301757813
      ],
      "min": [
        -20.5231990814209,
        12.422300338745117,
        80.88289642333984
      ],
      "type": "VEC3"
    },
    {
      "bufferView": 2,
      "byteOffset": 185484,
      "componentType": 5126,
      "count": 2439,
      "max": [
        1.0,
        0.9999997615814209,
        0.9999390840530396
      ],
      "min": [
        -1.0,
        -0.99998939037323,
        -1.0
      ],
      "type": "VEC3"
    },
    {
      "bufferView": 1,
      "byteOffset": 52072,
      "componentType": 5126,
      "count": 2439,
      "max": [
        0.9984999895095825,
        0.998199999332428
      ],
      "min": [
        0.003599999938160181,
        0.0035000001080334187
      ],
      "type": "VEC2"
    },
    {
      "bufferView": 0,
      "byteOffset": 99840,
      "componentType": 5125,
      "count": 7584,
      "type": "SCALAR"
    },
    {
      "bufferView": 2,
      "byteOffset": 214752,
      "componentType": 5126,
      "count": 973,
      "max": [
        18.30229949951172,
        12.577899932861328,
        180.48350524902344
      ],
      "min": [
        -18.043100357055664,
        -20.679000854492188,
        135.05250549316406
      ],
      "type": "VEC3"
    },
    {
      "bufferView": 2,
      "byteOffset": 226428,
      "componentType": 5126,
      "count": 973,
      "max": [
        0.9989878535270691,
        0.9947540760040283,
        0.9981744289398193
      ],
      "min": [
        -0.9989878535270691,
        -0.9990708231925964,
        -0.9994378089904785
      ],
      "type": "VEC3"
    },
    {
      "bufferView": 1,
      "byteOffset": 71584,
      "componentType": 5126,
      "count": 973,
      "max": [
        0.9983999729156494,
        0.972599983215332
      ],
      "min": [
        0.012799999676644802,
        0.12860000133514404
      ],
      "type": "VEC2"
    },
    {
      "bufferView": 0,
      "byteOffset": 130176,
      "componentType": 5125,
      "count": 3012,
      "type": "SCALAR"
    },
    {
      "bufferView": 2,
      "byteOffset": 238104,
      "componentType": 5126,
      "count": 96,
      "max": [
        15.936800003051758,
        -4.140399932861328,
        171.1219024658203
      ],
      "min": [
        -15.701800346374512,
        -6.2459001541137695,
        165.95419311523438
      ],
      "type": "VEC3"
    },
    {
      "bufferView": 2,
      "byteOffset": 239256,
      "componentType": 5126,
      "count": 96,
      "max": [
        0.9598352313041687,
        0.28340649604797363,
        0.9595403671264648
      ],
      "min": [
        -0.9598352313041687,
        -0.8238515853881836,
        -0.9601337313652039
      ],
      "type": "VEC3"
    },
    {
      "bufferView": 1,
      "byteOffset": 79368,
      "componentType": 5126,
      "count": 96,
      "max": [
        0.47029998898506165,
        0.8562999963760376
      ],
      "min": [
        0.04410000145435333,
        0.7250999808311462
      ],
      "type": "VEC2"
    },
    {
      "bufferView": 0,
      "byteOffset": 142224,
      "componentType": 5125,
      "count": 264,
      "type": "SCALAR"
    }
  ],
  "asset": {
    "extras": {
      "author": "Keen Software House (https://sketchfab.com/keensoftwarehouse)",
      "license": "CC-BY-4.0 (http://creativecommons.org/licenses/by/4.0/)",
      "source": "https://sketchfab.com/3d-models/space-engineers-astronaut-02a99eb6a6214c9cabbd321c2ee6ab86",
      "title": "Space Engineers Astronaut"
    },
    "generator": "Sketchfab-12.67.0",
    "version": "2.0"
  },
  "bufferViews": [
    {
      "buffer": 0,
      "byteLength": 143280,
      "name": "floatBufferViews",
      "target": 34963
    },
    {
      "buffer": 0,
      "byteLength": 80136,
      "byteOffset": 143280,
      "byteStride": 8,
      "name": "floatBufferViews",
      "target": 34962
    },
    {
      "buffer": 0,
      "byteLength": 240408,
      "byteOffset": 223416,
      "byteStride": 12,
      "name": "floatBufferViews",
      "target": 34962
    }
  ],
  "buffers": [
    {
      "byteLength": 463824,
      "uri": "scene.bin"
    }
  ],
  "extensionsRequired": [
    "KHR_materials_pbrSpecularGlossiness"
  ],
  "extensionsUsed": [
    "KHR_materials_pbrSpecularGlossiness"
  ],
  "materials": [
    {
      "doubleSided": true,
      "emissiveFactor": [
        1.0,
        1.0,
        1.0
      ],
      "extensions": {
        "KHR_materials_pbrSpecularGlossiness": {
          "diffuseFactor": [
            1.0,
            1.0,
            1.0,
            1.0
          ],
          "glossinessFactor": 1.0,
          "specularFactor": [
            1.0,
            1.0,
            1.0
          ]
        }
      },
      "name": "Astronaut"
    },
    {
      "doubleSided": true,
      "extensions": {
        "KHR_materials_pbrSpecularGlossiness": {
          "diffuseFactor": [
            1.0,
            1.0,
            1.0,
            1.0
          ],
          "glossinessFactor": 0.4,
          "specularFactor": [
            0.05,
            0.05,
            0.05
          ]
        }
      },
      "name": "Astronaut_glass"
    },
    {
      "doubleSided": true,
      "extensions": {
        "KHR_materials_pbrSpecularGlossiness": {
          "diffuseFactor": [
            1.0,
            1.0,
            1.0,
            1.0
          ],
          "glossinessFactor": 0.4,
          "specularFactor": [
            0.05,
            0.05,
            0.05
          ]
        }
      },
      "name": "material"
    },
    {
      "doubleSided": true,
      "extensions": {
        "KHR_materials_pbrSpecularGlossiness": {
          "diffuseFactor": [
            1.0,
            1.0,
            1.0,
            1.0
          ],
          "glossinessFactor": 0.4,
          "specularFactor": [
            0.05,
            0.05,
            0.05
          ]
        }
      },
      "name": "Head"
    },
    {
      "doubleSided": true,
      "extensions": {
        "KHR_materials_pbrSpecularGlossiness": {
          "diffuseFactor": [
            1.0,
            1.0,
            1.0,
            1.0
          ],
          "glossinessFactor": 0.4,
          "specularFactor": [
            0.05,
            0.05,
            0.05
          ]
        }
      },
      "name": "Light"
    }
  ],
  "meshes": [
    {
      "name": "Object_0",
      "primitives": [
        {
          "attributes": {
            "NORMAL": 1,
            "POSITION": 0,
            "TEXCOORD_0": 2
          },
          "indices": 3,
          "material": 0,
          "mode": 4
        }
      ]
    },
    {
      "name": "Object_1",
      "primitives": [
        {
          "attributes": {
            "NORMAL": 5,
            "POSITION": 4,
            "TEXCOORD_0": 6
          },
          "indices": 7,
          "material": 1,
          "mode": 4
        }
      ]
    },
    {
      "name": "Object_2",
      "primitives": [
        {
          "attributes": {
            "NORMAL": 9,
            "POSITION": 8,
            "TEXCOORD_0": 10
          },
          "indices": 11,
          "material": 2,
          "mode": 4
        }
      ]
    },
    {
      "name": "Object_3",
      "primitives": [
        {
          "attributes": {
            "NORMAL": 13,
            "POSITION": 12,
            "TEXCOORD_0": 14
          },
          "indices": 15,
          "material": 3,
          "mode": 4
        }
      ]
    },
    {
      "name": "Object_4",
      "primitives": [
        {
          "attributes": {
            "NORMAL": 17,
            "POSITION": 16,
            "TEXCOORD_0": 18
          },
          "indices": 19,
          "material": 4,
          "mode": 4
        }
      ]
    }
  ],
  "nodes": [
    {
      "children": [
        1
      ],
      "matrix": [
        1.0,
        0.0,
        0.0,
        0.0,
        0.0,
        2.220446049250313e-16,
        -1.0,
        0.0,
        0.0,
        1.0,
        2.220446049250313e-16,
        0.0,
        0.0,
        0.0,
        0.0,
        1.0
      ],
      "name": "Sketchfab_model"
    },
    {
      "children": [
        2,
        3,
        4,
        5,
        6
      ],
      "name": "b59c937523ce40e9a3e35c8c83ea1160.obj.cleaner.materialmerger.gles"
    },
    {
      "mesh": 0,
      "name": "Object_2"
    },
    {
      "mesh": 1,
      "name": "Object_3"
    },
    {
      "mesh": 2,
      "name": "Object_4"
    },
    {
      "mesh": 3,
      "name": "Object_5"
    },
    {
      "mesh": 4,
      "name": "Object_6"
    }
  ],
  "scene": 0,
  "scenes": [
    {
      "name": "Sketchfab_Scene",
      "nodes": [
        0
      ]
    }
  ]
}
